<svg id="visual" viewBox="0 0 900 600" width="900" height="600" xmlns="http://www.w3.org/2000/svg" xmlns:xlink="http://www.w3.org/1999/xlink" version="1.1"><rect x="0" y="0" width="900" height="600" fill="#ffffff"></rect><defs><linearGradient id="grad1_0" x1="33.3%" y1="0%" x2="100%" y2="100%"><stop offset="20%" stop-color="#22c55e" stop-opacity="1"></stop><stop offset="80%" stop-color="#22c55e" stop-opacity="1"></stop></linearGradient></defs><defs><linearGradient id="grad1_1" x1="33.3%" y1="0%" x2="100%" y2="100%"><stop offset="20%" stop-color="#22c55e" stop-opacity="1"></stop><stop offset="80%" stop-color="#82da93" stop-opacity="1"></stop></linearGradient></defs><defs><linearGradient id="grad1_2" x1="33.3%" y1="0%" x2="100%" y2="100%"><stop offset="20%" stop-color="#c3edc8" stop-opacity="1"></stop><stop offset="80%" stop-color="#82da93" stop-opacity="1"></stop></linearGradient></defs><defs><linearGradient id="grad1_3" x1="33.3%" y1="0%" x2="100%" y2="100%"><stop offset="20%" stop-color="#c3edc8" stop-opacity="1"></stop><stop offset="80%" stop-color="#ffffff" stop-opacity="1"></stop></linearGradient></defs><defs><linearGradient id="grad2_0" x1="0%" y1="0%" x2="66.7%" y2="100%"><stop offset="20%" stop-color="#22c55e" stop-opacity="1"></stop><stop offset="80%" stop-color="#22c55e" stop-opacity="1"></stop></linearGradient></defs><defs><linearGradient id="grad2_1" x1="0%" y1="0%" x2="66.7%" y2="100%"><stop offset="20%" stop-color="#82da93" stop-opacity="1"></stop><stop offset="80%" stop-color="#22c55e" stop-opacity="1"></stop></linearGradient></defs><defs><linearGradient id="grad2_2" x1="0%" y1="0%" x2="66.7%" y2="100%"><stop offset="20%" stop-color="#82da93" stop-opacity="1"></stop><stop offset="80%" stop-color="#c3edc8" stop-opacity="1"></stop></linearGradient></defs><defs><linearGradient id="grad2_3" x1="0%" y1="0%" x2="66.7%" y2="100%"><stop offset="20%" stop-color="#ffffff" stop-opacity="1"></stop><stop offset="80%" stop-color="#c3edc8" stop-opacity="1"></stop></linearGradient></defs><g transform="translate(900, 0)"><path d="M0 405.6C-50.4 360.2 -100.9 314.8 -165.5 286.7C-230.1 258.5 -308.9 247.7 -351.3 202.8C-393.7 157.9 -399.6 79 -405.6 0L0 0Z" fill="#e1f6e3"></path><path d="M0 304.2C-37.8 270.2 -75.7 236.1 -124.1 215C-172.6 193.9 -231.7 185.8 -263.5 152.1C-295.2 118.4 -299.7 59.2 -304.2 0L0 0Z" fill="#a4e4ad"></path><path d="M0 202.8C-25.2 180.1 -50.4 157.4 -82.7 143.3C-115.1 129.3 -154.4 123.9 -175.6 101.4C-196.8 79 -199.8 39.5 -202.8 0L0 0Z" fill="#5cd079"></path><path d="M0 101.4C-12.6 90.1 -25.2 78.7 -41.4 71.7C-57.5 64.6 -77.2 61.9 -87.8 50.7C-98.4 39.5 -99.9 19.7 -101.4 0L0 0Z" fill="#22c55e"></path></g><g transform="translate(0, 600)"><path d="M0 -405.6C81.4 -401 162.8 -396.5 202.8 -351.3C242.9 -306.1 241.6 -220.3 268.5 -155C295.4 -89.7 350.5 -44.8 405.6 0L0 0Z" fill="#e1f6e3"></path><path d="M0 -304.2C61 -300.8 122.1 -297.3 152.1 -263.5C182.1 -229.6 181.2 -165.2 201.4 -116.3C221.5 -67.3 262.9 -33.6 304.2 0L0 0Z" fill="#a4e4ad"></path><path d="M0 -202.8C40.7 -200.5 81.4 -198.2 101.4 -175.6C121.4 -153 120.8 -110.2 134.2 -77.5C147.7 -44.8 175.3 -22.4 202.8 0L0 0Z" fill="#5cd079"></path><path d="M0 -101.4C20.3 -100.3 40.7 -99.1 50.7 -87.8C60.7 -76.5 60.4 -55.1 67.1 -38.8C73.8 -22.4 87.6 -11.2 101.4 0L0 0Z" fill="#22c55e"></path></g></svg>
